<svg xmlns="http://www.w3.org/2000/svg" xmlns:xlink="http://www.w3.org/1999/xlink" id="visual" width="900" height="600" version="1.1" viewBox="0 0 900 600"><g stroke-linejoin="bevel" stroke-width="1"><path fill="#0f1835" stroke="#0f1835" d="M419 277L421 185L338 220Z"/><path fill="#0f203f" stroke="#0f203f" d="M419 277L514 231L421 185Z"/><path fill="#0e102b" stroke="#0e102b" d="M421 185L312 133L338 220Z"/><path fill="#0f1835" stroke="#0f1835" d="M520 63L409 102L421 185Z"/><path fill="#0f1835" stroke="#0f1835" d="M421 185L409 102L312 133Z"/><path fill="#0e102b" stroke="#0e102b" d="M312 133L260 279L338 220Z"/><path fill="#0e132e" stroke="#0e132e" d="M338 220L289 365L419 277Z"/><path fill="#0f1b38" stroke="#0f1b38" d="M510 437L525 277L419 277Z"/><path fill="#0f1b38" stroke="#0f1b38" d="M419 277L525 277L514 231Z"/><path fill="#0f203f" stroke="#0f203f" d="M173 215L236 284L260 279Z"/><path fill="#0e1632" stroke="#0e1632" d="M260 279L289 365L338 220Z"/><path fill="#0e132e" stroke="#0e132e" d="M236 284L289 365L260 279Z"/><path fill="#0f1b38" stroke="#0f1b38" d="M525 277L591 199L514 231Z"/><path fill="#0f2342" stroke="#0f2342" d="M514 231L520 63L421 185Z"/><path fill="#0f1835" stroke="#0f1835" d="M289 365L399 437L419 277Z"/><path fill="#0f2849" stroke="#0f2849" d="M525 277L626 292L591 199Z"/><path fill="#0e132e" stroke="#0e132e" d="M591 199L520 63L514 231Z"/><path fill="#0e0c28" stroke="#0e0c28" d="M409 102L302 0L312 133Z"/><path fill="#0f2849" stroke="#0f2849" d="M312 133L173 215L260 279Z"/><path fill="#0f1835" stroke="#0f1835" d="M236 284L181 368L289 365Z"/><path fill="#0e102b" stroke="#0e102b" d="M460 0L403 0L409 102Z"/><path fill="#0f2342" stroke="#0f2342" d="M312 133L218 72L173 215Z"/><path fill="#0f2849" stroke="#0f2849" d="M302 0L218 72L312 133Z"/><path fill="#0e0c28" stroke="#0e0c28" d="M369 600L431 462L399 437Z"/><path fill="#0f203f" stroke="#0f203f" d="M399 437L510 437L419 277Z"/><path fill="#0f203f" stroke="#0f203f" d="M431 462L510 437L399 437Z"/><path fill="#0f203f" stroke="#0f203f" d="M520 63L460 0L409 102Z"/><path fill="#0f1b38" stroke="#0f1b38" d="M619 401L626 292L525 277Z"/><path fill="#0f2849" stroke="#0f2849" d="M403 0L302 0L409 102Z"/><path fill="#0f2546" stroke="#0f2546" d="M94 273L181 368L236 284Z"/><path fill="#0e1632" stroke="#0e1632" d="M289 365L275 509L399 437Z"/><path fill="#0e102b" stroke="#0e102b" d="M369 600L461 474L431 462Z"/><path fill="#0f203f" stroke="#0f203f" d="M431 462L461 474L510 437Z"/><path fill="#0f2849" stroke="#0f2849" d="M591 199L635 129L520 63Z"/><path fill="#0f1835" stroke="#0f1835" d="M520 63L593 0L460 0Z"/><path fill="#0e102b" stroke="#0e102b" d="M685 168L635 129L591 199Z"/><path fill="#0f1835" stroke="#0f1835" d="M173 215L94 273L236 284Z"/><path fill="#0e1632" stroke="#0e1632" d="M134 90L107 236L173 215Z"/><path fill="#0f1b38" stroke="#0f1b38" d="M615 533L619 401L510 437Z"/><path fill="#0f1e3b" stroke="#0f1e3b" d="M510 437L619 401L525 277Z"/><path fill="#0f203f" stroke="#0f203f" d="M196 0L134 90L218 72Z"/><path fill="#0e102b" stroke="#0e102b" d="M218 72L134 90L173 215Z"/><path fill="#0f203f" stroke="#0f203f" d="M706 295L685 168L626 292Z"/><path fill="#0f1b38" stroke="#0f1b38" d="M626 292L685 168L591 199Z"/><path fill="#0e132e" stroke="#0e132e" d="M0 262L94 273L107 236Z"/><path fill="#0f1e3b" stroke="#0f1e3b" d="M107 236L94 273L173 215Z"/><path fill="#0e132e" stroke="#0e132e" d="M167 490L275 509L181 368Z"/><path fill="#0f203f" stroke="#0f203f" d="M181 368L275 509L289 365Z"/><path fill="#0e102b" stroke="#0e102b" d="M302 0L196 0L218 72Z"/><path fill="#0e0c28" stroke="#0e0c28" d="M663 70L520 63L635 129Z"/><path fill="#0e1632" stroke="#0e1632" d="M663 70L593 0L520 63Z"/><path fill="#0f1b38" stroke="#0f1b38" d="M685 168L663 70L635 129Z"/><path fill="#0f1835" stroke="#0f1835" d="M619 401L706 295L626 292Z"/><path fill="#0f2849" stroke="#0f2849" d="M72 424L167 490L181 368Z"/><path fill="#0f2342" stroke="#0f2342" d="M275 509L369 600L399 437Z"/><path fill="#0e132e" stroke="#0e132e" d="M517 600L615 533L510 437Z"/><path fill="#0e102b" stroke="#0e102b" d="M312 600L369 600L275 509Z"/><path fill="#0e1632" stroke="#0e1632" d="M94 273L72 424L181 368Z"/><path fill="#0f2849" stroke="#0f2849" d="M517 600L510 437L461 474Z"/><path fill="#0e1632" stroke="#0e1632" d="M619 401L739 411L706 295Z"/><path fill="#0f2342" stroke="#0f2342" d="M178 600L275 509L167 490Z"/><path fill="#0f1e3b" stroke="#0f1e3b" d="M178 600L312 600L275 509Z"/><path fill="#0f1835" stroke="#0f1835" d="M761 0L694 0L663 70Z"/><path fill="#0f2546" stroke="#0f2546" d="M663 70L694 0L593 0Z"/><path fill="#0f2546" stroke="#0f2546" d="M763 129L663 70L685 168Z"/><path fill="#0f203f" stroke="#0f203f" d="M795 226L763 129L685 168Z"/><path fill="#0e0c28" stroke="#0e0c28" d="M196 0L82 0L134 90Z"/><path fill="#0e132e" stroke="#0e132e" d="M0 177L0 262L107 236Z"/><path fill="#0e132e" stroke="#0e132e" d="M94 273L0 408L72 424Z"/><path fill="#0f2849" stroke="#0f2849" d="M369 600L517 600L461 474Z"/><path fill="#0f203f" stroke="#0f203f" d="M72 424L98 490L167 490Z"/><path fill="#0e0c28" stroke="#0e0c28" d="M696 529L739 411L619 401Z"/><path fill="#0f2342" stroke="#0f2342" d="M706 295L795 226L685 168Z"/><path fill="#0f2546" stroke="#0f2546" d="M0 177L107 236L134 90Z"/><path fill="#0f1835" stroke="#0f1835" d="M72 424L0 506L98 490Z"/><path fill="#0f1e3b" stroke="#0f1e3b" d="M0 87L0 177L134 90Z"/><path fill="#0e1632" stroke="#0e1632" d="M822 308L795 226L706 295Z"/><path fill="#0e132e" stroke="#0e132e" d="M82 0L0 87L134 90Z"/><path fill="#0e0c28" stroke="#0e0c28" d="M615 533L696 529L619 401Z"/><path fill="#0f1b38" stroke="#0f1b38" d="M671 600L696 529L615 533Z"/><path fill="#0f1835" stroke="#0f1835" d="M123 600L178 600L167 490Z"/><path fill="#0e132e" stroke="#0e132e" d="M0 262L0 408L94 273Z"/><path fill="#0f1b38" stroke="#0f1b38" d="M98 490L123 600L167 490Z"/><path fill="#0e132e" stroke="#0e132e" d="M763 129L761 0L663 70Z"/><path fill="#0f2546" stroke="#0f2546" d="M900 0L761 0L763 129Z"/><path fill="#0f1835" stroke="#0f1835" d="M739 411L822 308L706 295Z"/><path fill="#0f2546" stroke="#0f2546" d="M795 226L900 136L763 129Z"/><path fill="#0e132e" stroke="#0e132e" d="M804 432L822 308L739 411Z"/><path fill="#0e132e" stroke="#0e132e" d="M517 600L636 600L615 533Z"/><path fill="#0f1e3b" stroke="#0f1e3b" d="M810 600L765 483L696 529Z"/><path fill="#0f1e3b" stroke="#0f1e3b" d="M696 529L765 483L739 411Z"/><path fill="#0e0c28" stroke="#0e0c28" d="M82 0L0 0L0 87Z"/><path fill="#0f1835" stroke="#0f1835" d="M0 600L123 600L98 490Z"/><path fill="#0e0c28" stroke="#0e0c28" d="M765 483L804 432L739 411Z"/><path fill="#0e0c28" stroke="#0e0c28" d="M636 600L671 600L615 533Z"/><path fill="#0e102b" stroke="#0e102b" d="M0 408L0 506L72 424Z"/><path fill="#0f1b38" stroke="#0f1b38" d="M900 331L900 213L822 308Z"/><path fill="#0f2546" stroke="#0f2546" d="M822 308L900 213L795 226Z"/><path fill="#0f2849" stroke="#0f2849" d="M900 213L900 136L795 226Z"/><path fill="#0e1632" stroke="#0e1632" d="M900 400L900 331L822 308Z"/><path fill="#0f2342" stroke="#0f2342" d="M900 400L822 308L804 432Z"/><path fill="#0f1e3b" stroke="#0f1e3b" d="M900 400L804 432L900 462Z"/><path fill="#0f1b38" stroke="#0f1b38" d="M900 462L804 432L765 483Z"/><path fill="#0f1e3b" stroke="#0f1e3b" d="M0 506L0 600L98 490Z"/><path fill="#0f203f" stroke="#0f203f" d="M900 136L900 0L763 129Z"/><path fill="#0f1835" stroke="#0f1835" d="M671 600L810 600L696 529Z"/><path fill="#0e1632" stroke="#0e1632" d="M810 600L900 462L765 483Z"/><path fill="#0f2342" stroke="#0f2342" d="M810 600L900 600L900 462Z"/></g></svg>