<svg xmlns="http://www.w3.org/2000/svg" version="1.1" xmlns:xlink="http://www.w3.org/1999/xlink"
  xmlns:svgjs="http://svgjs.com/svgjs" width="1440" height="560" preserveAspectRatio="none" viewBox="0 0 1440 560">
  <g mask="url(&quot;#SvgjsMask1402&quot;)" fill="none">
    <rect width="1440" height="560" x="0" y="0" fill="url(#SvgjsLinearGradient1403)"></rect>
    <path
      d="M29.32 -55.79L94.27 -18.29L94.27 56.71L29.32 94.21L-35.63 56.71L-35.63 -18.29zM94.27 56.71L159.23 94.21L159.23 169.21L94.27 206.71L29.32 169.21L29.32 94.21zM29.32 169.21L94.27 206.71L94.27 281.71L29.32 319.21L-35.63 281.71L-35.63 206.71zM484 56.71L548.95 94.21L548.95 169.21L484 206.71L419.04 169.21L419.04 94.21zM419.04 169.21L484 206.71L484 281.71L419.04 319.21L354.09 281.71L354.09 206.71zM484 506.71L548.95 544.21L548.95 619.21L484 656.71L419.04 619.21L419.04 544.21zM613.9 281.71L678.86 319.21L678.86 394.21L613.9 431.71L548.95 394.21L548.95 319.21zM548.95 394.21L613.9 431.71L613.9 506.71L548.95 544.21L484 506.71L484 431.71zM678.86 394.21L743.81 431.71L743.81 506.71L678.86 544.21L613.9 506.71L613.9 431.71zM808.76 -55.79L873.72 -18.29L873.72 56.71L808.76 94.21L743.81 56.71L743.81 -18.29zM938.67 -55.79L1003.63 -18.29L1003.63 56.71L938.67 94.21L873.72 56.71L873.72 -18.29zM938.67 394.21L1003.63 431.71L1003.63 506.71L938.67 544.21L873.72 506.71L873.72 431.71zM1068.58 169.21L1133.53 206.71L1133.53 281.71L1068.58 319.21L1003.63 281.71L1003.63 206.71zM1133.53 281.71L1198.49 319.21L1198.49 394.21L1133.53 431.71L1068.58 394.21L1068.58 319.21zM1133.53 506.71L1198.49 544.21L1198.49 619.21L1133.53 656.71L1068.58 619.21L1068.58 544.21zM1328.39 169.21L1393.35 206.71L1393.35 281.71L1328.39 319.21L1263.44 281.71L1263.44 206.71zM1458.3 169.21L1523.26 206.71L1523.26 281.71L1458.3 319.21L1393.35 281.71L1393.35 206.71z"
      stroke="#03305d" stroke-width="2"></path>
    <path
      d="M21.82 -55.79 a7.5 7.5 0 1 0 15 0 a7.5 7.5 0 1 0 -15 0zM86.77 -18.29 a7.5 7.5 0 1 0 15 0 a7.5 7.5 0 1 0 -15 0zM86.77 56.71 a7.5 7.5 0 1 0 15 0 a7.5 7.5 0 1 0 -15 0zM21.82 94.21 a7.5 7.5 0 1 0 15 0 a7.5 7.5 0 1 0 -15 0zM-43.13 56.71 a7.5 7.5 0 1 0 15 0 a7.5 7.5 0 1 0 -15 0zM-43.13 -18.29 a7.5 7.5 0 1 0 15 0 a7.5 7.5 0 1 0 -15 0zM151.73 94.21 a7.5 7.5 0 1 0 15 0 a7.5 7.5 0 1 0 -15 0zM151.73 169.21 a7.5 7.5 0 1 0 15 0 a7.5 7.5 0 1 0 -15 0zM86.77 206.71 a7.5 7.5 0 1 0 15 0 a7.5 7.5 0 1 0 -15 0zM21.82 169.21 a7.5 7.5 0 1 0 15 0 a7.5 7.5 0 1 0 -15 0zM86.77 281.71 a7.5 7.5 0 1 0 15 0 a7.5 7.5 0 1 0 -15 0zM21.82 319.21 a7.5 7.5 0 1 0 15 0 a7.5 7.5 0 1 0 -15 0zM-43.13 281.71 a7.5 7.5 0 1 0 15 0 a7.5 7.5 0 1 0 -15 0zM-43.13 206.71 a7.5 7.5 0 1 0 15 0 a7.5 7.5 0 1 0 -15 0zM476.5 56.71 a7.5 7.5 0 1 0 15 0 a7.5 7.5 0 1 0 -15 0zM541.45 94.21 a7.5 7.5 0 1 0 15 0 a7.5 7.5 0 1 0 -15 0zM541.45 169.21 a7.5 7.5 0 1 0 15 0 a7.5 7.5 0 1 0 -15 0zM476.5 206.71 a7.5 7.5 0 1 0 15 0 a7.5 7.5 0 1 0 -15 0zM411.54 169.21 a7.5 7.5 0 1 0 15 0 a7.5 7.5 0 1 0 -15 0zM411.54 94.21 a7.5 7.5 0 1 0 15 0 a7.5 7.5 0 1 0 -15 0zM476.5 281.71 a7.5 7.5 0 1 0 15 0 a7.5 7.5 0 1 0 -15 0zM411.54 319.21 a7.5 7.5 0 1 0 15 0 a7.5 7.5 0 1 0 -15 0zM346.59 281.71 a7.5 7.5 0 1 0 15 0 a7.5 7.5 0 1 0 -15 0zM346.59 206.71 a7.5 7.5 0 1 0 15 0 a7.5 7.5 0 1 0 -15 0zM476.5 506.71 a7.5 7.5 0 1 0 15 0 a7.5 7.5 0 1 0 -15 0zM541.45 544.21 a7.5 7.5 0 1 0 15 0 a7.5 7.5 0 1 0 -15 0zM541.45 619.21 a7.5 7.5 0 1 0 15 0 a7.5 7.5 0 1 0 -15 0zM476.5 656.71 a7.5 7.5 0 1 0 15 0 a7.5 7.5 0 1 0 -15 0zM411.54 619.21 a7.5 7.5 0 1 0 15 0 a7.5 7.5 0 1 0 -15 0zM411.54 544.21 a7.5 7.5 0 1 0 15 0 a7.5 7.5 0 1 0 -15 0zM606.4 281.71 a7.5 7.5 0 1 0 15 0 a7.5 7.5 0 1 0 -15 0zM671.36 319.21 a7.5 7.5 0 1 0 15 0 a7.5 7.5 0 1 0 -15 0zM671.36 394.21 a7.5 7.5 0 1 0 15 0 a7.5 7.5 0 1 0 -15 0zM606.4 431.71 a7.5 7.5 0 1 0 15 0 a7.5 7.5 0 1 0 -15 0zM541.45 394.21 a7.5 7.5 0 1 0 15 0 a7.5 7.5 0 1 0 -15 0zM541.45 319.21 a7.5 7.5 0 1 0 15 0 a7.5 7.5 0 1 0 -15 0zM606.4 506.71 a7.5 7.5 0 1 0 15 0 a7.5 7.5 0 1 0 -15 0zM476.5 431.71 a7.5 7.5 0 1 0 15 0 a7.5 7.5 0 1 0 -15 0zM736.31 431.71 a7.5 7.5 0 1 0 15 0 a7.5 7.5 0 1 0 -15 0zM736.31 506.71 a7.5 7.5 0 1 0 15 0 a7.5 7.5 0 1 0 -15 0zM671.36 544.21 a7.5 7.5 0 1 0 15 0 a7.5 7.5 0 1 0 -15 0zM801.26 -55.79 a7.5 7.5 0 1 0 15 0 a7.5 7.5 0 1 0 -15 0zM866.22 -18.29 a7.5 7.5 0 1 0 15 0 a7.5 7.5 0 1 0 -15 0zM866.22 56.71 a7.5 7.5 0 1 0 15 0 a7.5 7.5 0 1 0 -15 0zM801.26 94.21 a7.5 7.5 0 1 0 15 0 a7.5 7.5 0 1 0 -15 0zM736.31 56.71 a7.5 7.5 0 1 0 15 0 a7.5 7.5 0 1 0 -15 0zM736.31 -18.29 a7.5 7.5 0 1 0 15 0 a7.5 7.5 0 1 0 -15 0zM931.17 -55.79 a7.5 7.5 0 1 0 15 0 a7.5 7.5 0 1 0 -15 0zM996.13 -18.29 a7.5 7.5 0 1 0 15 0 a7.5 7.5 0 1 0 -15 0zM996.13 56.71 a7.5 7.5 0 1 0 15 0 a7.5 7.5 0 1 0 -15 0zM931.17 94.21 a7.5 7.5 0 1 0 15 0 a7.5 7.5 0 1 0 -15 0zM931.17 394.21 a7.5 7.5 0 1 0 15 0 a7.5 7.5 0 1 0 -15 0zM996.13 431.71 a7.5 7.5 0 1 0 15 0 a7.5 7.5 0 1 0 -15 0zM996.13 506.71 a7.5 7.5 0 1 0 15 0 a7.5 7.5 0 1 0 -15 0zM931.17 544.21 a7.5 7.5 0 1 0 15 0 a7.5 7.5 0 1 0 -15 0zM866.22 506.71 a7.5 7.5 0 1 0 15 0 a7.5 7.5 0 1 0 -15 0zM866.22 431.71 a7.5 7.5 0 1 0 15 0 a7.5 7.5 0 1 0 -15 0zM1061.08 169.21 a7.5 7.5 0 1 0 15 0 a7.5 7.5 0 1 0 -15 0zM1126.03 206.71 a7.5 7.5 0 1 0 15 0 a7.5 7.5 0 1 0 -15 0zM1126.03 281.71 a7.5 7.5 0 1 0 15 0 a7.5 7.5 0 1 0 -15 0zM1061.08 319.21 a7.5 7.5 0 1 0 15 0 a7.5 7.5 0 1 0 -15 0zM996.13 281.71 a7.5 7.5 0 1 0 15 0 a7.5 7.5 0 1 0 -15 0zM996.13 206.71 a7.5 7.5 0 1 0 15 0 a7.5 7.5 0 1 0 -15 0zM1190.99 319.21 a7.5 7.5 0 1 0 15 0 a7.5 7.5 0 1 0 -15 0zM1190.99 394.21 a7.5 7.5 0 1 0 15 0 a7.5 7.5 0 1 0 -15 0zM1126.03 431.71 a7.5 7.5 0 1 0 15 0 a7.5 7.5 0 1 0 -15 0zM1061.08 394.21 a7.5 7.5 0 1 0 15 0 a7.5 7.5 0 1 0 -15 0zM1126.03 506.71 a7.5 7.5 0 1 0 15 0 a7.5 7.5 0 1 0 -15 0zM1190.99 544.21 a7.5 7.5 0 1 0 15 0 a7.5 7.5 0 1 0 -15 0zM1190.99 619.21 a7.5 7.5 0 1 0 15 0 a7.5 7.5 0 1 0 -15 0zM1126.03 656.71 a7.5 7.5 0 1 0 15 0 a7.5 7.5 0 1 0 -15 0zM1061.08 619.21 a7.5 7.5 0 1 0 15 0 a7.5 7.5 0 1 0 -15 0zM1061.08 544.21 a7.5 7.5 0 1 0 15 0 a7.5 7.5 0 1 0 -15 0zM1320.89 169.21 a7.5 7.5 0 1 0 15 0 a7.5 7.5 0 1 0 -15 0zM1385.85 206.71 a7.5 7.5 0 1 0 15 0 a7.5 7.5 0 1 0 -15 0zM1385.85 281.71 a7.5 7.5 0 1 0 15 0 a7.5 7.5 0 1 0 -15 0zM1320.89 319.21 a7.5 7.5 0 1 0 15 0 a7.5 7.5 0 1 0 -15 0zM1255.94 281.71 a7.5 7.5 0 1 0 15 0 a7.5 7.5 0 1 0 -15 0zM1255.94 206.71 a7.5 7.5 0 1 0 15 0 a7.5 7.5 0 1 0 -15 0zM1450.8 169.21 a7.5 7.5 0 1 0 15 0 a7.5 7.5 0 1 0 -15 0zM1515.76 206.71 a7.5 7.5 0 1 0 15 0 a7.5 7.5 0 1 0 -15 0zM1515.76 281.71 a7.5 7.5 0 1 0 15 0 a7.5 7.5 0 1 0 -15 0zM1450.8 319.21 a7.5 7.5 0 1 0 15 0 a7.5 7.5 0 1 0 -15 0z"
      fill="#03305d"></path>
    <path
      d="M65.35 221.28L108.66 246.28L108.66 296.28L65.35 321.28L22.05 296.28L22.05 246.28zM65.35 521.28L108.66 546.28L108.66 596.28L65.35 621.28L22.05 596.28L22.05 546.28zM108.66 -3.72L151.96 21.28L151.96 71.28L108.66 96.28L65.35 71.28L65.35 21.28zM108.66 296.28L151.96 321.28L151.96 371.28L108.66 396.28L65.35 371.28L65.35 321.28zM108.66 446.28L151.96 471.28L151.96 521.28L108.66 546.28L65.35 521.28L65.35 471.28zM195.26 446.28L238.56 471.28L238.56 521.28L195.26 546.28L151.96 521.28L151.96 471.28zM281.87 296.28L325.17 321.28L325.17 371.28L281.87 396.28L238.56 371.28L238.56 321.28zM368.47 146.28L411.77 171.28L411.77 221.28L368.47 246.28L325.17 221.28L325.17 171.28zM411.77 221.28L455.08 246.28L455.08 296.28L411.77 321.28L368.47 296.28L368.47 246.28zM368.47 446.28L411.77 471.28L411.77 521.28L368.47 546.28L325.17 521.28L325.17 471.28zM455.08 -3.72L498.38 21.28L498.38 71.28L455.08 96.28L411.77 71.28L411.77 21.28zM541.68 296.28L584.98 321.28L584.98 371.28L541.68 396.28L498.38 371.28L498.38 321.28zM628.28 146.28L671.59 171.28L671.59 221.28L628.28 246.28L584.98 221.28L584.98 171.28zM671.59 521.28L714.89 546.28L714.89 596.28L671.59 621.28L628.28 596.28L628.28 546.28zM714.89 446.28L758.19 471.28L758.19 521.28L714.89 546.28L671.59 521.28L671.59 471.28zM844.8 71.28L888.1 96.28L888.1 146.28L844.8 171.28L801.5 146.28L801.5 96.28zM888.1 146.28L931.4 171.28L931.4 221.28L888.1 246.28L844.8 221.28L844.8 171.28zM931.4 371.28L974.71 396.28L974.71 446.28L931.4 471.28L888.1 446.28L888.1 396.28zM974.71 -3.72L1018.01 21.28L1018.01 71.28L974.71 96.28L931.4 71.28L931.4 21.28zM1018.01 71.28L1061.31 96.28L1061.31 146.28L1018.01 171.28L974.71 146.28L974.71 96.28zM974.71 446.28L1018.01 471.28L1018.01 521.28L974.71 546.28L931.4 521.28L931.4 471.28zM1061.31 146.28L1104.61 171.28L1104.61 221.28L1061.31 246.28L1018.01 221.28L1018.01 171.28zM1104.61 521.28L1147.91 546.28L1147.91 596.28L1104.61 621.28L1061.31 596.28L1061.31 546.28zM1147.91 -3.72L1191.22 21.28L1191.22 71.28L1147.91 96.28L1104.61 71.28L1104.61 21.28zM1191.22 371.28L1234.52 396.28L1234.52 446.28L1191.22 471.28L1147.91 446.28L1147.91 396.28zM1191.22 521.28L1234.52 546.28L1234.52 596.28L1191.22 621.28L1147.91 596.28L1147.91 546.28zM1277.82 371.28L1321.13 396.28L1321.13 446.28L1277.82 471.28L1234.52 446.28L1234.52 396.28zM1364.43 521.28L1407.73 546.28L1407.73 596.28L1364.43 621.28L1321.13 596.28L1321.13 546.28zM1451.03 71.28L1494.34 96.28L1494.34 146.28L1451.03 171.28L1407.73 146.28L1407.73 96.28zM1451.03 221.28L1494.34 246.28L1494.34 296.28L1451.03 321.28L1407.73 296.28L1407.73 246.28z"
      stroke="rgba(6, 80, 156, 0.93)" stroke-width="2"></path>
  </g>
  <defs>
    <mask id="SvgjsMask1402">
      <rect width="1440" height="560" fill="#ffffff"></rect>
    </mask>
    <linearGradient x1="15.28%" y1="-39.29%" x2="84.72%" y2="139.29%" gradientUnits="userSpaceOnUse"
      id="SvgjsLinearGradient1403">
      <stop stop-color="rgba(14, 42, 71, 1)" offset="0.25"></stop>
      <stop stop-color="rgba(14, 12, 40, 1)" offset="0.87"></stop>
    </linearGradient>
  </defs>
</svg>