<svg id="visual" viewBox="0 0 900 600" width="900" height="600" xmlns="http://www.w3.org/2000/svg" xmlns:xlink="http://www.w3.org/1999/xlink" version="1.1"><g stroke-width="1" stroke-linejoin="bevel"><path d="M419 277L421 185L338 220Z" fill="#1b374b" stroke="#1b374b"></path><path d="M419 277L514 231L421 185Z" fill="#0f2333" stroke="#0f2333"></path><path d="M421 185L312 133L338 220Z" fill="#274b65" stroke="#274b65"></path><path d="M520 63L409 102L421 185Z" fill="#1b374b" stroke="#1b374b"></path><path d="M421 185L409 102L312 133Z" fill="#1b374b" stroke="#1b374b"></path><path d="M312 133L260 279L338 220Z" fill="#274b65" stroke="#274b65"></path><path d="M338 220L289 365L419 277Z" fill="#23445c" stroke="#23445c"></path><path d="M510 437L525 277L419 277Z" fill="#173043" stroke="#173043"></path><path d="M419 277L525 277L514 231Z" fill="#173043" stroke="#173043"></path><path d="M173 215L236 284L260 279Z" fill="#0f2333" stroke="#0f2333"></path><path d="M260 279L289 365L338 220Z" fill="#1f3d54" stroke="#1f3d54"></path><path d="M236 284L289 365L260 279Z" fill="#23445c" stroke="#23445c"></path><path d="M525 277L591 199L514 231Z" fill="#173043" stroke="#173043"></path><path d="M514 231L520 63L421 185Z" fill="#0b1d2b" stroke="#0b1d2b"></path><path d="M289 365L399 437L419 277Z" fill="#1b374b" stroke="#1b374b"></path><path d="M525 277L626 292L591 199Z" fill="#00101c" stroke="#00101c"></path><path d="M591 199L520 63L514 231Z" fill="#23445c" stroke="#23445c"></path><path d="M409 102L302 0L312 133Z" fill="#2b526e" stroke="#2b526e"></path><path d="M312 133L173 215L260 279Z" fill="#00101c" stroke="#00101c"></path><path d="M236 284L181 368L289 365Z" fill="#1b374b" stroke="#1b374b"></path><path d="M460 0L403 0L409 102Z" fill="#274b65" stroke="#274b65"></path><path d="M312 133L218 72L173 215Z" fill="#0b1d2b" stroke="#0b1d2b"></path><path d="M302 0L218 72L312 133Z" fill="#00101c" stroke="#00101c"></path><path d="M369 600L431 462L399 437Z" fill="#2b526e" stroke="#2b526e"></path><path d="M399 437L510 437L419 277Z" fill="#0f2333" stroke="#0f2333"></path><path d="M431 462L510 437L399 437Z" fill="#0f2333" stroke="#0f2333"></path><path d="M520 63L460 0L409 102Z" fill="#0f2333" stroke="#0f2333"></path><path d="M619 401L626 292L525 277Z" fill="#173043" stroke="#173043"></path><path d="M403 0L302 0L409 102Z" fill="#00101c" stroke="#00101c"></path><path d="M94 273L181 368L236 284Z" fill="#071723" stroke="#071723"></path><path d="M289 365L275 509L399 437Z" fill="#1f3d54" stroke="#1f3d54"></path><path d="M369 600L461 474L431 462Z" fill="#274b65" stroke="#274b65"></path><path d="M431 462L461 474L510 437Z" fill="#0f2333" stroke="#0f2333"></path><path d="M591 199L635 129L520 63Z" fill="#00101c" stroke="#00101c"></path><path d="M520 63L593 0L460 0Z" fill="#1b374b" stroke="#1b374b"></path><path d="M685 168L635 129L591 199Z" fill="#274b65" stroke="#274b65"></path><path d="M173 215L94 273L236 284Z" fill="#1b374b" stroke="#1b374b"></path><path d="M134 90L107 236L173 215Z" fill="#1f3d54" stroke="#1f3d54"></path><path d="M615 533L619 401L510 437Z" fill="#173043" stroke="#173043"></path><path d="M510 437L619 401L525 277Z" fill="#132a3b" stroke="#132a3b"></path><path d="M196 0L134 90L218 72Z" fill="#0f2333" stroke="#0f2333"></path><path d="M218 72L134 90L173 215Z" fill="#274b65" stroke="#274b65"></path><path d="M706 295L685 168L626 292Z" fill="#0f2333" stroke="#0f2333"></path><path d="M626 292L685 168L591 199Z" fill="#173043" stroke="#173043"></path><path d="M0 262L94 273L107 236Z" fill="#23445c" stroke="#23445c"></path><path d="M107 236L94 273L173 215Z" fill="#132a3b" stroke="#132a3b"></path><path d="M167 490L275 509L181 368Z" fill="#23445c" stroke="#23445c"></path><path d="M181 368L275 509L289 365Z" fill="#0f2333" stroke="#0f2333"></path><path d="M302 0L196 0L218 72Z" fill="#274b65" stroke="#274b65"></path><path d="M663 70L520 63L635 129Z" fill="#2b526e" stroke="#2b526e"></path><path d="M663 70L593 0L520 63Z" fill="#1f3d54" stroke="#1f3d54"></path><path d="M685 168L663 70L635 129Z" fill="#173043" stroke="#173043"></path><path d="M619 401L706 295L626 292Z" fill="#1b374b" stroke="#1b374b"></path><path d="M72 424L167 490L181 368Z" fill="#00101c" stroke="#00101c"></path><path d="M275 509L369 600L399 437Z" fill="#0b1d2b" stroke="#0b1d2b"></path><path d="M517 600L615 533L510 437Z" fill="#23445c" stroke="#23445c"></path><path d="M312 600L369 600L275 509Z" fill="#274b65" stroke="#274b65"></path><path d="M94 273L72 424L181 368Z" fill="#1f3d54" stroke="#1f3d54"></path><path d="M517 600L510 437L461 474Z" fill="#00101c" stroke="#00101c"></path><path d="M619 401L739 411L706 295Z" fill="#1f3d54" stroke="#1f3d54"></path><path d="M178 600L275 509L167 490Z" fill="#0b1d2b" stroke="#0b1d2b"></path><path d="M178 600L312 600L275 509Z" fill="#132a3b" stroke="#132a3b"></path><path d="M761 0L694 0L663 70Z" fill="#1b374b" stroke="#1b374b"></path><path d="M663 70L694 0L593 0Z" fill="#071723" stroke="#071723"></path><path d="M763 129L663 70L685 168Z" fill="#071723" stroke="#071723"></path><path d="M795 226L763 129L685 168Z" fill="#0f2333" stroke="#0f2333"></path><path d="M196 0L82 0L134 90Z" fill="#2b526e" stroke="#2b526e"></path><path d="M0 177L0 262L107 236Z" fill="#23445c" stroke="#23445c"></path><path d="M94 273L0 408L72 424Z" fill="#23445c" stroke="#23445c"></path><path d="M369 600L517 600L461 474Z" fill="#00101c" stroke="#00101c"></path><path d="M72 424L98 490L167 490Z" fill="#0f2333" stroke="#0f2333"></path><path d="M696 529L739 411L619 401Z" fill="#2b526e" stroke="#2b526e"></path><path d="M706 295L795 226L685 168Z" fill="#0b1d2b" stroke="#0b1d2b"></path><path d="M0 177L107 236L134 90Z" fill="#071723" stroke="#071723"></path><path d="M72 424L0 506L98 490Z" fill="#1b374b" stroke="#1b374b"></path><path d="M0 87L0 177L134 90Z" fill="#132a3b" stroke="#132a3b"></path><path d="M822 308L795 226L706 295Z" fill="#1f3d54" stroke="#1f3d54"></path><path d="M82 0L0 87L134 90Z" fill="#23445c" stroke="#23445c"></path><path d="M615 533L696 529L619 401Z" fill="#2b526e" stroke="#2b526e"></path><path d="M671 600L696 529L615 533Z" fill="#173043" stroke="#173043"></path><path d="M123 600L178 600L167 490Z" fill="#1b374b" stroke="#1b374b"></path><path d="M0 262L0 408L94 273Z" fill="#23445c" stroke="#23445c"></path><path d="M98 490L123 600L167 490Z" fill="#173043" stroke="#173043"></path><path d="M763 129L761 0L663 70Z" fill="#23445c" stroke="#23445c"></path><path d="M900 0L761 0L763 129Z" fill="#071723" stroke="#071723"></path><path d="M739 411L822 308L706 295Z" fill="#1b374b" stroke="#1b374b"></path><path d="M795 226L900 136L763 129Z" fill="#071723" stroke="#071723"></path><path d="M804 432L822 308L739 411Z" fill="#23445c" stroke="#23445c"></path><path d="M517 600L636 600L615 533Z" fill="#23445c" stroke="#23445c"></path><path d="M810 600L765 483L696 529Z" fill="#132a3b" stroke="#132a3b"></path><path d="M696 529L765 483L739 411Z" fill="#132a3b" stroke="#132a3b"></path><path d="M82 0L0 0L0 87Z" fill="#2b526e" stroke="#2b526e"></path><path d="M0 600L123 600L98 490Z" fill="#1b374b" stroke="#1b374b"></path><path d="M765 483L804 432L739 411Z" fill="#2b526e" stroke="#2b526e"></path><path d="M636 600L671 600L615 533Z" fill="#2b526e" stroke="#2b526e"></path><path d="M0 408L0 506L72 424Z" fill="#274b65" stroke="#274b65"></path><path d="M900 331L900 213L822 308Z" fill="#173043" stroke="#173043"></path><path d="M822 308L900 213L795 226Z" fill="#071723" stroke="#071723"></path><path d="M900 213L900 136L795 226Z" fill="#00101c" stroke="#00101c"></path><path d="M900 400L900 331L822 308Z" fill="#1f3d54" stroke="#1f3d54"></path><path d="M900 400L822 308L804 432Z" fill="#0b1d2b" stroke="#0b1d2b"></path><path d="M900 400L804 432L900 462Z" fill="#132a3b" stroke="#132a3b"></path><path d="M900 462L804 432L765 483Z" fill="#173043" stroke="#173043"></path><path d="M0 506L0 600L98 490Z" fill="#132a3b" stroke="#132a3b"></path><path d="M900 136L900 0L763 129Z" fill="#0f2333" stroke="#0f2333"></path><path d="M671 600L810 600L696 529Z" fill="#1b374b" stroke="#1b374b"></path><path d="M810 600L900 462L765 483Z" fill="#1f3d54" stroke="#1f3d54"></path><path d="M810 600L900 600L900 462Z" fill="#0b1d2b" stroke="#0b1d2b"></path></g></svg>